<svg width="64" height="64" viewBox="0 0 64 64" fill="none" xmlns="http://www.w3.org/2000/svg">
  <rect width="64" height="64" rx="18" fill="#0F172A"/>
  <rect x="8" y="8" width="48" height="48" rx="14" fill="url(#paint0_linear_1_2)"/>
  <path d="M20 25.5C20 22.4624 22.4624 20 25.5 20H38.5C41.5376 20 44 22.4624 44 25.5V38.5C44 41.5376 41.5376 44 38.5 44H25.5C22.4624 44 20 41.5376 20 38.5V25.5Z" fill="#EFF6FF" fill-opacity="0.96"/>
  <path d="M31.9999 24L34.8199 29.7152L41.1274 30.6318L36.5637 35.08L37.6413 41.3618L31.9999 38.396L26.3585 41.3618L27.4361 35.08L22.8724 30.6318L29.1799 29.7152L31.9999 24Z" fill="#2563EB"/>
  <circle cx="32" cy="32" r="4" fill="#0F172A"/>
  <defs>
    <linearGradient id="paint0_linear_1_2" x1="12" y1="10" x2="52" y2="54" gradientUnits="userSpaceOnUse">
      <stop stop-color="#38BDF8"/>
      <stop offset="1" stop-color="#2563EB"/>
    </linearGradient>
  </defs>
</svg>
